<svg xmlns="http://www.w3.org/2000/svg" width="18" height="15" viewBox="0 0 18 15">
    <g fill="none" fill-rule="evenodd">
        <path d="M0 0H24V24H0z" transform="translate(-3 -4)"/>
        <path fill="#FF2D55" fill-rule="nonzero" d="M21 5.835c-.64.323-1.385.54-2.13.54.745-.433 1.384-1.188 1.597-2.051-.745.431-1.49.755-2.343.863C17.485 4.432 16.527 4 15.462 4c-2.024 0-3.728 1.727-3.728 3.777 0 .324 0 .54.106.863-3.089-.108-5.858-1.618-7.668-3.885-.32.54-.533 1.187-.533 1.943 0 1.295.64 2.482 1.704 3.13-.639 0-1.171-.216-1.704-.432 0 1.834 1.278 3.345 2.982 3.669-.32.108-.639.108-.958.108-.213 0-.426 0-.746-.108.426 1.51 1.81 2.59 3.515 2.59-1.278.97-2.876 1.618-4.58 1.618H3C4.598 18.353 6.621 19 8.645 19c6.817 0 10.544-5.72 10.544-10.683v-.54c.64-.432 1.278-1.187 1.811-1.942z" transform="translate(-3 -4)"/>
    </g>
</svg>
