<svg xmlns="http://www.w3.org/2000/svg" width="10" height="16" viewBox="0 0 10 16">
    <g fill="none" fill-rule="evenodd">
        <path d="M0 0H24V24H0z" transform="translate(-7 -4)"/>
        <path fill="#FF2D55" fill-rule="nonzero" d="M16.161 4.003L14.002 4c-2.425 0-3.992 1.546-3.992 3.938v1.815H7.84c-.188 0-.34.146-.34.327v2.63c0 .18.152.326.34.326h2.17v6.638c0 .18.152.326.34.326h2.831c.188 0 .34-.146.34-.326v-6.638h2.537c.188 0 .34-.146.34-.326v-2.63c0-.087-.035-.17-.099-.231-.063-.061-.15-.096-.24-.096h-2.538V8.214c0-.74.183-1.115 1.186-1.115h1.454c.187 0 .339-.147.339-.327V4.33c0-.18-.152-.326-.339-.327z" transform="translate(-7 -4)"/>
    </g>
</svg>
