<svg xmlns="http://www.w3.org/2000/svg" width="24" height="24" viewBox="0 0 24 24">
    <g fill="none" fill-rule="evenodd">
        <path d="M0 0H24V24H0z"/>
        <path fill="#FF2D55" fill-rule="nonzero" d="M14 17.5v.5c0 1.105-.896 2-2 2s-2-.895-2-2v-.5h4zM12 4c.551 0 1 .449 1 1 0 .04-.007.077-.012.116 2.041.47 3.512 2.378 3.512 4.538v2.518c0 .53.21 1.039.586 1.414l1.121 1.121c.188.188.293.442.293.707V16.5h-13v-1.086c0-.265.105-.52.293-.707l1.121-1.121c.375-.375.586-.884.586-1.414V9.5c0-2.145 1.503-3.935 3.511-4.386C11.007 5.076 11 5.039 11 5c0-.551.449-1 1-1z"/>
    </g>
</svg>
