<svg xmlns="http://www.w3.org/2000/svg" width="24" height="24" viewBox="0 0 24 24">
    <g fill="none" fill-rule="evenodd" opacity=".32">
        <path d="M0 0H24V24H0z"/>
        <path fill="#736E7D" fill-rule="nonzero" d="M14 17.5v.5c0 1.105-.896 2-2 2-1.054 0-1.918-.816-1.995-1.85L10 18v-.5h4zM6.929 5.515L18.485 17.07c.39.39.39 1.024 0 1.414-.39.39-1.023.39-1.414 0L15.086 16.5H5.5v-1.086c0-.22.073-.434.206-.608l.087-.099 1.121-1.121c.334-.334.537-.773.578-1.239l.008-.175V9.5c0-.186.011-.37.033-.55L5.515 6.928c-.39-.39-.39-1.024 0-1.414.39-.39 1.023-.39 1.414 0zM12 4c.551 0 1 .449 1 1 0 .04-.007.077-.012.116 1.97.454 3.41 2.248 3.507 4.316l.005.222v2.518c0 .12.01.238.032.354L9.663 5.658c.411-.25.865-.436 1.348-.544C11.007 5.076 11 5.039 11 5c0-.551.449-1 1-1z"/>
    </g>
</svg>
