<svg xmlns="http://www.w3.org/2000/svg" width="16" height="18" viewBox="0 0 16 18">
    <g fill="none" fill-rule="evenodd">
        <path d="M0 0H24V24H0z" transform="translate(-4 -3)"/>
        <path fill="#FF2D55" fill-rule="nonzero" d="M17.332 15.724c-.675 0-1.28.269-1.74.693L9.254 12.67c.045-.208.08-.417.08-.633 0-.216-.035-.425-.08-.633L15.52 7.69c.478.45 1.11.73 1.81.73C18.81 8.42 20 7.214 20 5.71 20 4.211 18.809 3 17.332 3c-1.475 0-2.666 1.211-2.666 2.71 0 .219.036.424.081.633L8.48 10.059C8 9.607 7.37 9.326 6.668 9.326 5.191 9.326 4 10.536 4 12.036s1.19 2.71 2.668 2.71c.7 0 1.333-.28 1.811-.73l6.328 3.756c-.044.191-.071.39-.071.59 0 1.454 1.166 2.638 2.595 2.638 1.43 0 2.597-1.183 2.597-2.639 0-1.455-1.166-2.637-2.596-2.637z" transform="translate(-4 -3)"/>
    </g>
</svg>
